<?xml version="1.0" encoding="UTF-8" standalone="no"?>
<svg
   xmlns:dc="http://purl.org/dc/elements/1.1/"
   xmlns:cc="http://creativecommons.org/ns#"
   xmlns:rdf="http://www.w3.org/1999/02/22-rdf-syntax-ns#"
   xmlns:svg="http://www.w3.org/2000/svg"
   xmlns="http://www.w3.org/2000/svg"
   xmlns:sodipodi="http://sodipodi.sourceforge.net/DTD/sodipodi-0.dtd"
   xmlns:inkscape="http://www.inkscape.org/namespaces/inkscape"
   version="1.1"
   width="1000"
   height="1000"
   id="svg845"
   sodipodi:docname="wolframe-icon.svg"
   inkscape:version="1.0 (4035a4fb49, 2020-05-01)">
  <metadata
     id="metadata851">
    <rdf:RDF>
      <cc:Work
         rdf:about="">
        <dc:format>image/svg+xml</dc:format>
        <dc:type
           rdf:resource="http://purl.org/dc/dcmitype/StillImage" />
        <dc:title></dc:title>
      </cc:Work>
    </rdf:RDF>
  </metadata>
  <defs
     id="defs849" />
  <sodipodi:namedview
     inkscape:document-rotation="0"
     pagecolor="#ffffff"
     bordercolor="#666666"
     borderopacity="1"
     objecttolerance="10"
     gridtolerance="10"
     guidetolerance="10"
     inkscape:pageopacity="0"
     inkscape:pageshadow="2"
     inkscape:window-width="1920"
     inkscape:window-height="1012"
     id="namedview847"
     showgrid="false"
     inkscape:zoom="0.1767767"
     inkscape:cx="283.3867"
     inkscape:cy="305.40063"
     inkscape:window-x="1072"
     inkscape:window-y="619"
     inkscape:window-maximized="1"
     inkscape:current-layer="layer1" />
  <g
     inkscape:groupmode="layer"
     id="layer2"
     inkscape:label="bg"
     style="display:none;opacity:0.27541"
     sodipodi:insensitive="true">
    <path
       d="m 0,0 c 4.6526501,2.7682783 8.1314463,7.1204535 11.733353,11.094559 8.377109,9.21955 17.234323,17.950695 26.079147,26.717941 3.092836,3.066017 6.182171,6.135502 9.269531,9.207031 l 2.09639,2.071244 c 3.859654,3.840379 7.498036,7.795194 11.054047,11.916839 3.066492,3.456591 6.356498,6.683625 9.642532,9.929886 l 2.206543,2.195068 C 74.385256,75.424183 76.692195,77.712507 79,80 c 3.044648,3.017851 6.08583,6.039134 9.125,9.0625 l 2.077637,2.05249 c 3.907855,3.888225 7.619582,7.885178 11.220703,12.05899 3.71755,4.30551 7.63892,8.4105 11.57666,12.51352 l 2.55859,2.79883 c 4.7191,4.86985 8.74809,7.99112 15.26514,10.02734 l 1.96843,0.62173 c 7.5557,2.35196 15.19554,4.40914 22.84065,6.44663 1.5683,0.42168 3.13649,0.84378 4.70456,1.26628 4.1009,1.10387 8.20317,2.20258 12.30582,3.29994 4.07929,1.09181 8.1575,2.18761 12.23572,3.28339 l 2.42109,0.65015 c 3.98841,1.07131 7.97624,2.14474 11.963,3.2222 1.56108,0.42167 3.12218,0.8433 4.68329,1.26486 l 2.30568,0.62285 c 4.39234,1.18347 8.78991,2.34367 13.1944,3.48106 2.02492,0.52451 4.04784,1.05607 6.0702,1.59035 2.43279,0.64132 4.8689,1.27027 7.3089,1.88357 9.22489,2.45985 16.67173,6.12597 22.48703,13.91582 3.38448,4.35316 6.9128,8.42766 10.6875,12.4375 4.43961,4.73739 8.59152,9.62132 12.65625,14.6875 3.16178,3.79414 6.5292,7.37534 9.90454,10.97876 3.09701,3.32529 6.03543,6.72094 8.87671,10.27124 4.57701,5.70251 9.54065,10.9946 14.53906,16.32422 4.26788,4.55354 8.48735,9.14106 12.17749,14.1792 2.84885,3.40235 5.69068,4.50753 9.94361,5.84814 l 2.10098,0.6817 c 2.28257,0.73629 4.57281,1.44484 6.86386,2.15424 1.62218,0.51888 3.24367,1.03992 4.8645,1.56299 3.36252,1.08319 6.72778,2.1571 10.09546,3.22412 6.84686,2.1757 13.66054,4.44932 20.47311,6.72967 2.21443,0.74075 4.42976,1.47872 6.6453,2.21613 11.47306,3.82246 22.91815,7.72482 34.35913,11.64209 12.69751,4.34478 25.39796,8.67986 38.125,12.9375 l 2.13821,0.71655 c 9.55448,3.19645 19.14265,6.27368 28.75632,9.28736 2.16261,0.68039 4.3252,1.36081 6.48779,2.04126 4.22039,1.32723 8.44516,2.63914 12.67286,3.94287 1.93879,0.60767 3.87743,1.2158 5.81591,1.82446 l 2.69063,0.81618 c 4.65978,1.47698 8.28186,2.89124 11.81328,6.43382 1.93958,4.12391 2.50071,6.29091 1.2168,10.67334 -1.36398,3.24511 -2.88153,6.37111 -4.4668,9.51416 -0.58757,1.20201 -1.17313,2.405 -1.75684,3.60889 -1.27942,2.63102 -2.57246,5.25486 -3.87207,7.87597 -1.88866,3.82816 -3.71088,7.68497 -5.51861,11.5519 -1.5539,3.32204 -3.12322,6.63667 -4.69464,9.95045 -0.76352,1.61581 -1.52218,3.23391 -2.27564,4.85443 C 502.14667,388.64711 497.66385,396.47338 490,404 c -1.13689,1.28122 -2.26408,2.5712 -3.375,3.875 -3.40844,3.91339 -6.91588,7.73347 -10.42822,11.55322 -5.57469,6.06426 -11.11519,12.15833 -16.50928,18.38428 -3.68391,4.23607 -7.50523,8.34267 -11.33716,12.44458 -2.38402,2.56297 -4.67721,5.13561 -6.84643,7.88354 -7.07977,8.08485 -18.54371,13.14227 -27.81641,18.35938 l -2.78296,1.60205 -2.70532,1.4917 -2.38013,1.33398 c -7.40686,2.81727 -15.03664,2.00778 -22.75366,1.13184 l -3.20268,-0.33963 c -3.48135,-0.37146 -6.96103,-0.7566 -10.44088,-1.14182 -2.45105,-0.26414 -4.90221,-0.52741 -7.35345,-0.78985 -6.46046,-0.69398 -12.91961,-1.39945 -19.37854,-2.10748 -6.47014,-0.70745 -12.94136,-1.40482 -19.41254,-2.10267 -7.4592,-0.80499 -14.91829,-1.61085 -22.37683,-2.42199 C 284.60564,471.38412 268.30812,469.64615 252,468 l 0.72627,2.6667 c 2.45993,9.11703 4.74979,18.26417 6.94029,27.44938 0.58483,2.45209 1.17216,4.90358 1.76003,7.35494 1.25576,5.23832 2.50854,10.47735 3.76091,15.71648 4.8194,20.16006 9.65127,40.31567 14.67578,60.42578 l 0.55038,2.20644 c 0.52242,2.09214 1.04693,4.18375 1.57194,6.27525 l 0.49854,1.99949 c 0.84614,3.36557 1.73597,6.71139 2.69735,10.04601 l 0.57818,2.04065 c 0.52639,1.8454 1.06691,3.68676 1.60842,5.52779 0.85402,4.44788 0.51138,7.73744 -1.72356,11.68562 -4.95698,6.54238 -10.11993,12.88945 -15.36572,19.20215 -4.3798,5.27634 -8.58166,10.65125 -12.73194,16.11035 -2.87214,3.74722 -5.86674,7.3918 -8.85937,11.04297 -4.48908,5.4805 -8.85123,11.03766 -13.125,16.6875 -5.01456,6.62525 -10.21825,13.06413 -15.52954,19.45312 -4.38868,5.29081 -8.60835,10.686 -12.77515,16.15235 -2.23015,2.9208 -4.4811,5.82238 -6.75781,8.70703 l -1.90625,2.42187 c -1.79992,2.06462 -2.86499,2.69987 -5.54688,3.17188 L 190.75,734.5 l -2.26563,0.21875 c -8.01761,-2.31956 -12.50353,-14.20274 -16.42187,-21.03125 -0.74978,-1.29423 -1.5002,-2.58809 -2.25122,-3.88159 -1.9126,-3.29818 -3.81666,-6.6012 -5.71777,-9.90601 -1.67868,-2.91659 -3.36291,-5.82997 -5.04664,-8.74365 -2.47974,-4.29375 -4.95573,-8.58963 -7.42968,-12.88672 -5.25684,-9.12249 -10.57093,-18.21153 -15.8833,-27.30176 C 132.81989,645.98009 129.91017,640.98991 127,636 c -1.16665,-2.00001 -2.33331,-4.00001 -3.5,-6 -7,-12 -7,-12 -8.75098,-15.00171 -1.16337,-1.99433 -2.32678,-3.98863 -3.49023,-5.98291 -2.96743,-5.0866 -5.93409,-10.17365 -8.89941,-15.26147 C 95.597888,582.15447 88.819747,570.56528 82,559 c -2.220658,3.33099 -3.11646,6.50931 -4.135498,10.31934 l -0.61705,2.25387 c -0.674721,2.46906 -1.341806,4.94011 -2.009171,7.41116 -0.473044,1.73439 -0.946672,3.46862 -1.420852,5.2027 -1.252962,4.58651 -2.499942,9.17462 -3.745102,13.76325 -11.861489,43.70523 -11.861489,43.70523 -16.029358,57.8153 l -0.778488,2.71772 C 51.872106,663.08626 50.434414,666.47588 47,670 c -3.180702,1.59035 -6.583305,1.78937 -10,1 -5.207359,-3.5421 -7.717744,-7.40982 -10.5625,-12.9375 -0.868211,-1.62264 -1.739444,-3.24366 -2.613281,-4.86328 l -1.385254,-2.57666 C 19.981783,646.14427 17.364801,641.76253 14.75,637.375 c -1.110972,-1.86962 -2.221644,-3.73941 -3.332031,-5.60938 L 9.7163086,628.90039 C 6.8095192,623.98821 3.9355162,619.05699 1.0625,614.125 l -1.75415039,-3.01099 c -1.17649531,-2.01985 -2.35284571,-4.03979 -3.52905271,-6.05981 -1.7944904,-3.08028 -3.5911977,-6.15925 -5.3886719,-9.23779 -5.250085,-8.99229 -10.495269,-17.98709 -15.703125,-27.00391 -4.971417,-8.60656 -10.003895,-17.17697 -15.03714,-25.74744 -5.79698,-9.87363 -11.533847,-19.78011 -17.242401,-29.7052 -4.674793,-8.1167 -9.415917,-16.19242 -14.197998,-24.24633 -0.973182,-1.63921 -1.941145,-3.28152 -2.902832,-4.92749 -0.816655,-1.36577 -1.664217,-2.71406 -2.555664,-4.03223 -3.49714,-5.34758 -3.476155,-10.34893 -2.309097,-16.4764 0.624154,-2.4602 1.320687,-4.8869 2.04982,-7.31804 l 0.793319,-2.75515 c 0.852717,-2.95455 1.721237,-5.90421 2.589493,-8.85422 0.892177,-3.08022 1.779834,-6.16171 2.667007,-9.24338 0.600992,-2.08737 1.203242,-4.17439 1.806733,-6.26105 2.937722,-10.17577 5.720863,-20.39083 8.46376,-30.62057 0.430152,-1.60059 0.860327,-3.20118 1.290527,-4.80176 0.968556,-3.60697 1.933906,-7.2148 2.896973,-10.82324 -5.021261,0.51676 -10.041967,1.03873 -15.0625,1.5625 l -2.428833,0.25281 c -11.534455,1.20343 -23.061938,2.4637 -34.585307,3.76867 -2.12377,0.24037 -4.24762,0.48005 -6.3715,0.7195 -1.4228,0.16047 -2.84561,0.32095 -4.26841,0.48143 l -2.13792,0.24112 c -4.24014,0.47879 -8.47965,0.96277 -12.7188,1.45024 -2.03861,0.23354 -4.07749,0.46453 -6.1165,0.69446 -2.51481,0.2837 -5.02917,0.57149 -7.54294,0.86423 -17.97618,2.00985 -17.97618,2.00985 -22.76729,-0.78496 -3.26316,-3.67105 -3.26316,-3.67105 -4,-6.25 0.33593,-5.56308 1.92843,-9.09321 5.25,-13.4375 l 1.32568,-1.79395 c 5.11567,-6.84347 10.55636,-13.43535 15.99219,-20.0249 1.81377,-2.2083 3.59422,-4.44193 5.36963,-6.68115 3.57102,-4.48261 7.22278,-8.89611 10.875,-13.3125 4.77316,-5.77563 9.46782,-11.60094 14.07349,-17.51074 4.02266,-5.15195 8.14723,-10.2174 12.28051,-15.28076 3.47255,-4.26181 6.89192,-8.55984 10.271,-12.896 4.119135,-5.28411 8.349122,-10.46707 12.625,-15.625 4.926801,-5.94532 9.696249,-11.97134 14.371094,-18.11719 4.569122,-5.96035 9.3753,-11.73574 14.125488,-17.55176 C -55.264211,229.86953 -52.135302,225.93231 -49,222 c 1.473116,-1.84258 2.947008,-3.68451 4.422852,-5.5249 1.047892,-1.3123 2.090267,-2.62903 3.126953,-3.9502 2.249985,-2.85608 4.476509,-5.55161 7.032226,-8.14599 3.161554,-3.28337 5.300871,-5.74859 5.635742,-10.41089 l -0.295898,-3.57349 -0.165634,-2.05276 c -1.135698,-12.84306 -3.078502,-25.6241 -4.82045,-38.39499 -0.48532,-3.5727 -0.962765,-7.14639 -1.439697,-10.72022 l -0.454483,-3.27084 -0.414902,-3.11734 -0.367691,-2.69345 c -0.679989,-8.25624 -0.02661,-15.77928 1.621109,-23.8837 l 0.606079,-3.09845 c 0.657978,-3.350461 1.329629,-6.698007 2.002075,-10.045593 0.464275,-2.342962 0.927903,-4.686053 1.390915,-7.029266 0.970034,-4.898204 1.946638,-9.795037 2.928177,-14.690948 1.255274,-6.263134 2.495997,-12.529041 3.732053,-18.795992 0.954838,-4.834392 1.916418,-9.667424 2.88012,-14.500056 0.459926,-2.309617 0.917997,-4.619604 1.374149,-6.929969 0.639311,-3.231705 1.287455,-6.461515 1.937994,-9.690976 l 0.562363,-2.868804 C -14.878169,4.7171833 -14.878169,4.7171833 -10.8125,1 -7.0396168,-0.34146959 -3.8905407,-0.96718116 0,0 Z m 1,38 c -2.7632901,14.207209 -5.3642815,28.436048 -7.7746582,42.70752 -0.3629497,2.137498 -0.7305734,4.274208 -1.1025391,6.410156 -0.5472913,3.144014 -1.0807171,6.290104 -1.611084,9.437011 L -9.99617,99.427216 C -10.839117,104.53468 -11.25181,108.88526 -10,114 c 1.7823461,2.32631 3.4328434,4.22313 5.5,6.25 1.1067171,1.13815 2.2108596,2.27881 3.3125,3.42188 l 1.65234375,1.70117 C 2.609648,127.6461 4.5553483,130.05489 6.5,132.5 c 4.339273,5.40437 9.003964,10.44955 13.726562,15.51562 4.333318,4.64884 8.476458,9.45071 12.582032,14.30079 5.030992,5.9291 10.026341,11.76493 15.667968,17.13281 C 50,181 50,181 52,184 c 4.696778,-1.44716 7.677686,-4.21063 11.125,-7.5625 4.054814,-3.84764 8.137901,-7.55903 12.5,-11.0625 4.76769,-3.83081 9.292526,-7.87183 13.792969,-12.01172 2.931215,-2.68288 5.916617,-5.29586 8.925781,-7.89062 C 99.958928,144.03652 101.48826,142.544 103,141 l -2.16016,-2.125 C 99.872257,137.91681 98.904817,136.95847 97.9375,136 l -1.412109,-1.38672 c -2.692794,-2.67447 -5.244632,-5.41891 -7.712647,-8.30273 -3.788535,-4.3464 -7.806966,-8.41536 -11.906494,-12.4668 l -2.273804,-2.26233 C 72.257401,109.21848 69.879132,106.85883 67.5,104.5 64.361608,101.38839 61.226673,98.273362 58.09375,95.15625 L 55.949829,93.037476 C 52.036557,89.14328 48.339333,85.139347 44.734497,80.959351 41.81825,77.665052 38.692556,74.58959 35.5625,71.5 L 33.490479,69.439453 C 31.329429,67.290491 29.165153,65.144827 27,63 24.14284,60.169662 21.289165,57.335873 18.4375,54.5 L 16.492432,52.580078 C 12.632979,48.74127 9.0301588,44.782213 5.5627441,40.583984 3.981669,38.742089 3.981669,38.742089 1,38 Z m -12,109 c 0.654444,9.63507 1.9164497,19.15066 3.2851563,28.70312 0.2230713,1.57465 0.4458391,3.14934 0.6683196,4.72407 0.5805901,4.10366 1.1652453,8.20673 1.7508088,12.30969 0.5991209,4.20324 1.1943128,8.40703 1.7898559,12.61078 C -2.3410396,213.56565 -1.1719159,221.78302 0,230 c 2.6967274,-1.31133 4.8923317,-2.59634 7.1445312,-4.58203 L 8.9250488,223.8606 10.8125,222.1875 c 1.333199,-1.16942 2.666537,-2.33869 4,-3.50781 l 2.078125,-1.8291 c 4.09834,-3.59554 8.233104,-7.1492 12.360596,-10.71119 C 31.558729,204.14244 33.841357,202.15864 36,200 c -3.746805,-4.31304 -7.528778,-8.58774 -11.375,-12.8125 -3.091368,-3.41979 -6.04959,-6.90709 -8.9375,-10.5 -3.882747,-4.80431 -7.9980975,-9.32086 -12.2211914,-13.82227 -4.16860042,-4.47047 -8.0264521,-9.12228 -11.8217774,-13.91601 L -10,147 Z m 145,7 c -0.9306,2.79181 -1.14885,4.58551 -1.20532,7.47925 l -0.0604,2.76695 -0.0507,3.01552 -0.0631,3.16041 c -0.0663,3.42172 -0.12502,6.84351 -0.18298,10.26537 l -0.0642,3.51282 C 131.97929,205.80132 131.87957,227.39616 132,249 c 4.5127,-3.35122 8.97724,-6.73237 13.3125,-10.3125 l 2.83203,-2.33203 L 151,234 c 1.83264,-1.50085 3.66597,-3.00086 5.5,-4.5 l 2.77344,-2.26953 c 1.75474,-1.43547 3.50991,-2.87041 5.26562,-4.30469 C 167.36123,220.61945 170.18143,218.31073 173,216 l 1.93164,-1.5835 c 7.88644,-6.46917 15.7529,-12.95743 23.51904,-19.5708 4.31178,-3.66575 8.69666,-7.23518 13.11182,-10.77539 2.62478,-2.22938 5.01518,-4.62431 7.4375,-7.07031 -14.7652,-4.93719 -29.85004,-8.7307 -44.90961,-12.64374 -3.49577,-0.90933 -6.99026,-1.82356 -10.48492,-2.73712 C 148.81906,157.74574 148.81906,157.74574 134,154 Z m -30.1875,17.25 c -1.28639,1.11076 -2.57285,2.22143 -3.859375,3.33203 l -1.998047,1.72901 c -2.387957,2.06292 -4.785283,4.1147 -7.183838,6.16528 C 76.130499,194.96499 76.130499,194.96499 61.75,207.75 c -3.29293,2.98863 -6.663168,5.83384 -10.125,8.625 -4.554409,3.68202 -8.862476,7.554 -13.14624,11.54077 -3.211394,2.9711 -6.504858,5.7837 -9.91626,8.52173 C 22.085304,241.64577 16.053653,247.31207 10,253 c 2.506461,4.65732 5.015514,8.39471 8.6875,12.25 3.411123,3.65584 6.678723,7.35365 9.8125,11.25 3.053487,3.7846 6.206683,7.42208 9.5,11 4.084146,4.4371 7.907961,9.02485 11.691406,13.71875 3.279379,3.95079 6.748666,7.70734 10.242188,11.46875 C 62,315 62,315 64,318 c 3.673442,-1.22448 4.408566,-2.51773 6.75,-5.5625 4.634369,-5.81955 9.629011,-11.2152 14.756836,-16.60181 3.709797,-3.90373 7.301296,-7.88008 10.82373,-11.95361 1.525406,-1.71971 3.099287,-3.35464 4.724124,-4.97974 0.9403,-0.98809 1.88041,-1.97637 2.82031,-2.96484 l 1.46875,-1.38867 c 3.53056,-3.84121 4.00581,-7.20211 4.27759,-12.35498 l 0.10953,-2.00006 c 0.36499,-7.10319 0.49392,-14.21143 0.58554,-21.3227 0.0207,-1.40559 0.0417,-2.81119 0.063,-4.21678 0.0435,-2.92519 0.0844,-5.85039 0.12331,-8.77565 0.0489,-3.67844 0.1026,-7.35679 0.15796,-11.03513 C 110.90476,198.56198 111.06886,182.28374 111,166 c -2.43139,0 -5.33473,3.63989 -7.1875,5.25 z m 129.25,23.6875 c -1.36747,1.20298 -2.73597,2.4048 -4.10547,3.60547 l -2.04443,1.79443 C 222.6985,204.00066 218.34297,207.49172 214,211 c -5.90464,4.79644 -11.76746,9.63451 -17.5625,14.5625 -4.59664,3.90728 -9.2488,7.72801 -13.97656,11.47656 -2.67338,2.13022 -5.31863,4.29232 -7.96094,6.46094 -5.13246,4.20994 -10.3066,8.36556 -15.5,12.5 2.68268,1.34134 4.00453,0.77817 6.93579,0.19897 l 3.13817,-0.60946 3.42995,-0.68717 3.55873,-0.69595 c 3.17786,-0.62221 6.35455,-1.25 9.53093,-1.8797 4.57362,-0.90405 9.15027,-1.79264 13.72625,-2.68462 2.59518,-0.50588 5.19024,-1.01242 7.78516,-1.51962 9.48615,-1.85333 18.97541,-3.6866 28.48166,-5.43419 1.98575,-0.36606 3.97021,-0.7391 5.95462,-1.11233 14.99999,-2.73915 14.99999,-2.73915 20.73608,0.8811 1.56496,1.10224 3.11785,2.22175 4.66016,3.35547 1.69391,1.20326 3.38793,2.40638 5.08203,3.60937 l 2.54541,1.83399 c 2.80376,2.00823 5.64236,3.95967 8.49332,5.90001 l 2.06674,1.40663 1.83179,1.24452 c 3.34478,2.28892 6.63687,4.61986 9.86084,7.07652 10.19318,7.67709 20.29514,12.53814 32.24487,16.86646 1.7859,0.66871 3.57071,1.34033 5.35449,2.01465 3.6857,1.39246 7.3747,2.77557 11.06592,4.15332 8.81021,3.30589 17.53663,6.82223 26.26709,10.33203 1.67631,0.67174 3.35266,1.34337 5.02905,2.01489 9.97269,3.99991 19.91994,8.05834 29.84595,12.17261 l 3.50317,1.44897 c 5.45778,2.26243 10.90208,4.55114 16.32886,6.88697 l 3.06983,1.30298 c 1.87284,0.79535 3.74084,1.60224 5.60253,2.42334 4.66266,1.96675 7.86976,3.22127 12.87061,1.50024 3.02875,-1.58923 3.02875,-1.58923 5.875,-3.5625 l 2.92969,-1.94141 L 459,321 c -3.49597,-1.89328 -7.10753,-3.12637 -10.87183,-4.3916 l -2.08033,-0.70199 c -2.27936,-0.76842 -4.56008,-1.5327 -6.84081,-2.29704 -1.61024,-0.54204 -3.2204,-1.08436 -4.83046,-1.62695 -3.41628,-1.15073 -6.83314,-2.29975 -10.25047,-3.44739 -5.31293,-1.78432 -10.62447,-3.57272 -15.93567,-5.36218 l -2.64674,-0.89173 c -1.75497,-0.59129 -3.50993,-1.18259 -5.26489,-1.77391 -2.6139,-0.88061 -5.22791,-1.76087 -7.84194,-2.64106 C 379.53224,293.52038 366.63524,289.15296 353.75,284.75 l -2.3392,-0.79797 c -4.12869,-1.40871 -8.25456,-2.82517 -12.37717,-4.25156 -2.21072,-0.76147 -4.42471,-1.51301 -6.63861,-2.26517 -1.53023,-0.52625 -3.06035,-1.05285 -4.59033,-1.57983 L 325.685,275.1424 c -11.89652,-4.1301 -19.79829,-12.68684 -27.81,-21.98615 -2.04859,-2.35588 -4.14703,-4.66132 -6.25,-6.96875 -3.09137,-3.41979 -6.04959,-6.90709 -8.9375,-10.5 -3.89071,-4.81416 -8.0175,-9.33674 -12.24536,-13.85083 -3.89364,-4.18082 -7.50081,-8.53897 -11.07495,-12.99683 -3.28782,-3.94429 -6.77486,-7.68875 -10.29492,-11.42578 -2.06104,-2.19515 -4.02847,-4.35371 -5.79883,-6.79297 L 242,189 c -3.67269,0 -6.29169,3.57772 -8.9375,5.9375 z M -24,227 c -0.968911,1.05819 -1.897283,2.15354 -2.808594,3.26172 l -1.748291,2.12134 -1.880615,2.30444 -1.929443,2.35327 c -4.464636,5.46815 -8.792937,11.02043 -13.066651,16.63892 -4.570393,5.96201 -9.378217,11.73865 -14.129883,17.55615 -1.826651,2.24327 -3.633988,4.50148 -5.436523,6.76416 -3.965018,4.97505 -7.989651,9.90083 -12.009521,14.83154 -3.571035,4.39108 -7.079846,8.82475 -10.552979,13.29346 -4.215141,5.41288 -8.606785,10.64695 -13.0957,15.83423 -3.77263,4.36071 -7.43897,8.79735 -11.07227,13.27514 -2.0579,2.50774 -4.14735,4.98257 -6.25391,7.44922 -4.45515,5.21854 -8.82034,10.49773 -13.07812,15.87891 l -1.40967,1.7688 c -2.18893,2.78846 -4.00884,5.47275 -5.52783,8.6687 7.78325,-0.83602 15.56568,-1.67925 23.34724,-2.53081 3.61641,-0.39555 7.23302,-0.78893 10.85027,-1.17671 C -85.777556,363.35834 -67.869418,361.1058 -50,358 c 1.902492,-4.91444 3.5623,-9.73662 4.875,-14.84766 0.343237,-1.32088 0.6865,-2.64177 1.029785,-3.96264 l 0.53888,-2.09348 c 3.323788,-12.89714 6.82692,-25.737 10.473938,-38.54626 1.831348,-6.43967 3.642736,-12.88499 5.456298,-19.32968 0.60092,-2.13099 1.205464,-4.26092 1.810669,-6.39069 1.045231,-3.68688 2.057622,-7.3823 3.06543,-11.07959 l 0.908691,-3.16772 C -20.007025,251.71809 -19.900115,246.00395 -21,239 l -0.535156,-3.69922 -0.527344,-2.98828 -0.535156,-3.07422 L -23,227 Z m 254.99219,39.875 -2.98828,0.54687 L 224.875,268 l -3.15234,0.57812 C 219.14814,269.05051 216.57395,269.52454 214,270 v 2 c 3.20727,1.77277 6.416,3.54287 9.625,5.3125 l 2.73828,1.51367 2.67578,1.47461 2.44385,1.34888 c 2.80922,1.50706 5.66572,2.92465 8.51709,4.35034 l -2,-20 c -2.42415,0 -4.62161,0.43616 -7.00781,0.875 z M 260,267 c 0.27696,3.79289 0.57405,7.58394 0.875,11.375 l 0.23828,3.27344 0.25391,3.125 0.22217,2.88818 c 0.21238,2.52288 0.21238,2.52288 2.41064,4.33838 2.34223,-1.59236 4.6733,-3.19774 7,-4.8125 l 2.02344,-1.36914 C 274.73717,284.62049 276.37521,283.316 278,282 v -3 c -1.45769,-1.42475 -1.45769,-1.42475 -3.42969,-2.66406 l -2.16015,-1.46094 -2.28516,-1.5 -2.26172,-1.52344 C 264.0316,269.25631 264.0316,269.25631 260,267 Z m -264,7 c -2.4845991,8.99851 -4.9629872,17.99872 -7.4375,27 l -0.571331,2.07796 c -4.604683,16.7515 -9.171469,33.51221 -13.623981,50.30485 l -0.567698,2.14074 c -1.638242,6.18025 -3.273509,12.36128 -4.899313,18.54481 -0.997264,3.79285 -1.996937,7.58506 -2.997833,11.37695 l -0.959275,3.64362 c -1.673911,6.30899 -3.412936,12.59271 -5.251174,18.85541 l -0.573902,1.96427 c -0.908448,3.106 -1.827775,6.20797 -2.765469,9.30529 l -0.979233,3.32077 -0.878403,2.91501 C -46.012205,428.0629 -45.876967,429.51741 -45,432 c 1.190968,-1.16313 2.377527,-2.33077 3.5625,-3.5 l 2.003906,-1.96875 c 1.8835,-1.95908 3.639893,-3.93381 5.398438,-6 5.882853,-6.77376 12.406014,-12.95642 18.783203,-19.25879 1.711126,-1.69284 3.419083,-3.38884 5.126953,-5.08496 l 1.5473633,-1.52222 c 2.7863121,-2.76781 5.4283741,-5.61029 7.99560545,-8.58325 C 2.9202606,382.03786 6.631398,378.2569 10.4375,374.5 l 2.072021,-2.06055 c 2.887857,-2.8717 5.78171,-5.73733 8.675049,-8.60351 2.128087,-2.10987 4.253059,-4.22284 6.37793,-6.33594 l 1.945068,-1.91992 c 3.840168,-3.81963 7.475939,-7.75986 11.006363,-11.86792 C 42.241614,341.72163 44.054907,339.84417 45.9375,338 L 47.714844,336.25 49,335 C 45.111988,329.54154 40.860648,324.5671 36.34375,319.62109 33.258651,316.17092 30.362844,312.58328 27.449219,308.98828 20.538182,300.55615 13.375629,292.33289 6.0429687,284.26562 3.4161323,281.3525 0.85935788,278.38156 -1.6875,275.39844 L -3,274 Z m 157.9375,5.5 c -1.45236,0.24155 -2.90484,0.48244 -4.35742,0.72266 C 146.05209,280.80754 142.52567,281.4013 139,282 c 1.38113,4.54799 3.24173,8.64364 5.49219,12.8125 l 1.03612,1.94557 c 1.111,2.08312 2.22871,4.16255 3.34669,6.24193 0.7753,1.45027 1.55028,2.90071 2.32495,4.35132 4.79369,8.96476 9.64583,17.89688 14.53833,26.8081 4.13377,7.55028 8.12505,15.17178 12.07935,22.81739 3.30802,6.38939 6.71409,12.71936 10.18237,19.02319 4.94612,-3.67788 8.54004,-7.97 12.37891,-12.77344 2.94262,-3.66087 6.03073,-7.19037 9.12109,-10.72656 4.51183,-5.17456 8.92685,-10.40868 13.24609,-15.74609 2.13383,-2.6072 4.3041,-5.1775 6.49048,-7.74048 C 237.5905,320.83425 237.5905,320.83425 242,311 l -2.65625,-1.29297 c -8.39687,-4.12428 -16.67783,-8.44382 -24.90625,-12.89453 l -3.06274,-1.65186 c -5.29258,-2.87397 -10.52878,-5.8178 -15.7107,-8.8872 l -3.10327,-1.81958 c -1.94704,-1.14705 -3.88476,-2.31012 -5.81103,-3.4917 C 175.8069,274.53742 165.86694,277.47114 153.9375,279.5 Z M 118,293 l -1.17407,1.26587 c -1.79476,1.9335 -3.59159,3.86507 -5.38843,5.79663 l -1.8457,1.99023 c -3.6193,3.8874 -7.30996,7.68141 -11.080325,11.42212 -1.736905,1.75262 -3.359405,3.57581 -4.948975,5.46265 C 89.915928,323.1725 85.996484,327.09694 82,331 c 2.526818,2.861 5.349649,4.44907 8.6875,6.26562 l 1.715088,0.93958 c 1.223279,0.66936 2.447857,1.33635 3.673584,2.00122 1.951135,1.05839 3.898839,2.12286 5.845708,3.18909 2.69693,1.47674 5.39496,2.95145 8.09375,4.4248 6.00925,3.28386 11.9977,6.60487 17.98437,9.92969 l 3.33765,1.84863 c 5.34389,2.96738 10.6642,5.96789 15.94751,9.04199 l 2.96289,1.71973 c 1.83242,1.06753 3.66078,2.14206 5.48437,3.22461 L 158.16016,375 160.27368,376.25 162,377 l 2,-1 -1.47656,-2.55078 c -5.00981,-8.74206 -9.7233,-17.61648 -14.33594,-26.57422 -4.87306,-9.46279 -9.84325,-18.85912 -14.97729,-28.18286 -2.33639,-4.24557 -4.64704,-8.49971 -6.88599,-12.79761 l -1.25855,-2.41357 c -0.77214,-1.4873 -1.53953,-2.97707 -2.30127,-4.46973 C 121.06217,295.37469 121.06217,295.37469 118,293 Z m 175.13672,5.42187 -2.16382,1.58985 -2.2854,1.73828 -2.39282,1.78516 c -1.6362,1.22171 -3.26924,2.44767 -4.89917,3.67773 -2.22478,1.65974 -4.47559,3.2703 -6.74707,4.86523 C 265.64819,318.46286 258.69916,325.26153 252,334 c -0.90859,1.16008 -1.81877,2.31892 -2.73047,3.47656 -1.38413,1.75916 -2.76646,3.5195 -4.14136,5.28589 -3.60205,4.61856 -7.34293,9.10247 -11.14599,13.55615 -2.85065,3.33873 -5.65328,6.7095 -8.41968,10.1189 -2.50788,3.08731 -5.04735,6.13958 -7.64844,9.14844 l -1.61938,1.87329 c -1.04163,1.20112 -2.08621,2.3997 -3.13428,3.59521 -3.03113,3.49301 -5.67517,7.04357 -8.1604,10.94556 8.39607,2.17731 16.82028,4.05556 25.32422,5.75903 l 3.85771,0.77953 c 4.16768,0.84164 8.33656,1.67721 12.50557,2.51222 1.44371,0.28947 2.88741,0.57895 4.33112,0.86846 5.99969,1.20269 11.99969,2.40385 18.00055,3.60072 8.57072,1.70944 17.13947,3.42813 25.70576,5.15964 6.04595,1.22132 12.0939,2.43237 18.14344,3.63573 3.60632,0.71763 7.21161,1.43971 10.81483,2.17273 4.00639,0.81476 8.01671,1.60826 12.02774,2.39988 l 3.61125,0.74423 3.30427,0.64147 2.86899,0.57478 c 2.85943,0.17306 4.12224,-0.31397 6.50455,-1.84842 1.67826,-1.47444 1.67826,-1.47444 3.25,-3.1875 2.26725,-2.39633 4.62982,-4.57377 7.14062,-6.70703 6.36311,-5.52404 12.18857,-11.61722 18.10938,-17.60547 13.27809,-13.42934 13.27809,-13.42934 19.43945,-18.6665 4.89878,-4.35899 9.44415,-9.11655 14.06055,-13.771 1.07138,-1.07641 2.14299,-2.15258 3.21484,-3.22852 2.59776,-2.60865 5.19234,-5.22042 7.78516,-7.83398 -2.21602,-2.46434 -4.2362,-3.74872 -7.26953,-5.05859 l -2.64551,-1.15015 -2.89746,-1.22876 -3.05762,-1.31274 c -11.43705,-4.87157 -22.99557,-9.44214 -34.54976,-14.0263 -6.1684,-2.45061 -12.31248,-4.95915 -18.45512,-7.47346 -3.3614,-1.37009 -6.72353,-2.73836 -10.08594,-4.10596 -3.01145,-1.22502 -6.0215,-2.45343 -9.03125,-3.68261 -4.54739,-1.856 -9.09879,-3.70192 -13.6524,-5.54261 -1.81063,-0.73364 -3.62001,-1.47034 -5.4281,-2.2102 -2.54287,-1.03993 -5.08995,-2.06881 -7.63825,-3.09534 l -2.31335,-0.9547 c -5.59829,-2.2355 -9.66212,-3.60854 -14.83899,0.26329 z m 189.42578,43.45313 -3.39258,0.23828 C 473.84242,342.52431 468.98483,342.9076 464,345 c 4.26601,6.21619 9.20758,11.36897 14.59253,16.6062 4.31559,4.21004 4.31559,4.21004 5.40747,6.3938 h 2 c 1.9589,-3.74971 3.91702,-7.49982 5.875,-11.25 l 1.68359,-3.22266 1.6211,-3.10547 1.4917,-2.85644 c 1.12876,-2.17954 2.2382,-4.36651 3.32861,-6.56543 -5.83927,-0.0626 -11.61899,0.42768 -17.4375,0.875 z M 57,357 c -1.483459,1.46683 -1.483459,1.46683 -3.03125,3.40625 -4.974781,5.85026 -10.472115,11.14446 -15.941406,16.52734 l -2.433594,2.41016 -2.166016,2.13086 c -1.995113,2.07537 -3.883111,4.18429 -5.763672,6.36133 -3.466132,3.99015 -7.121718,7.73456 -10.882812,11.44531 l -2.004761,1.99329 c -2.79227,2.77613 -5.5905432,5.54618 -8.3883054,8.31677 -2.0585926,2.04036 -4.1140626,4.08383 -6.1694336,6.12744 l -1.8787842,1.85364 c -3.0447032,3.02787 -5.9667849,6.106 -8.7698978,9.35974 -3.766146,4.35871 -7.806382,8.39586 -11.909912,12.43506 -1.572393,1.55976 -3.144655,3.11966 -4.716797,4.67968 -2.45623,2.43126 -4.914047,4.86087 -7.374267,7.28809 -2.39062,2.36061 -4.775137,4.72724 -7.158936,7.09473 l -2.253402,2.21261 -2.054947,2.04471 -1.820176,1.79758 C -49.215251,465.92373 -49.215251,465.92373 -49,468 l 3.621826,1.30322 c 4.756165,1.71146 9.512215,3.42323 14.26825,5.13504 2.196948,0.79068 4.393929,1.58127 6.590942,2.37177 13.390727,4.8181 26.7788908,9.64314 40.161944,14.48251 4.188737,1.51447 8.377828,3.02796 12.566895,4.54152 4.096574,1.48031 8.192504,2.96238 12.288008,4.44565 1.948309,0.70527 3.89694,1.40964 5.845717,2.11362 2.393934,0.86479 4.787344,1.73104 7.180145,2.59896 l 3.216019,1.1603 2.799896,1.01307 C 61.682005,507.89216 63.796917,508.49309 66,509 66.337705,493.94953 65.384025,478.93781 64.586496,463.91534 64.38731,460.1466 64.192888,456.37761 63.997925,452.60864 63.629366,445.49747 63.256627,438.38653 62.882322,431.27566 62.455819,423.16921 62.034075,415.06251 61.612697,406.95579 60.747029,390.30358 59.875495,373.65169 59,357 Z m 24,0 c 0.674426,26.36714 1.863506,52.70939 3.101807,79.05518 0.284649,6.06744 0.558382,12.13534 0.829985,18.20338 0.212782,4.70991 0.43352,9.41942 0.656482,14.12885 0.104673,2.24059 0.206322,4.48132 0.304852,6.72219 0.137112,3.10228 0.285489,6.20382 0.436708,9.30544 l 0.115128,2.77931 0.131439,2.55376 0.10221,2.20926 C 87.043447,494.27613 87.856531,495.963 89,498 c 14.91291,-17.05461 14.91291,-17.05461 29.4375,-34.4375 4.14246,-5.10478 8.44369,-10.05873 12.76318,-15.01318 3.92194,-4.50891 7.72971,-9.09639 11.49073,-13.74073 2.72204,-3.31158 5.51015,-6.56157 8.30859,-9.80859 8.84621,-9.44408 8.84621,-9.44408 16,-20 l -1.91406,-1.06299 C 153.2595,397.36133 141.47655,390.7353 129.8125,383.875 121.17202,378.79704 112.44922,373.90588 103.63135,369.14307 97.152732,365.64302 90.750076,362.03318 84.386719,358.32812 82.309591,356.91896 82.309591,356.91896 81,357 Z m 361.9939,3.90845 -2.62281,2.65796 -1.41795,1.42942 c -2.00551,2.02182 -4.00528,4.04928 -6.00514,6.07668 -1.46093,1.47933 -2.9251,2.95541 -4.38941,4.4314 l -2.64672,2.68188 c -2.17948,2.15497 -4.45042,4.17203 -6.77027,6.17481 -4.17065,3.61656 -8.07879,7.44876 -11.96582,11.36596 l -2.14937,2.15366 c -2.24035,2.24589 -4.4772,4.49526 -6.71391,6.74478 -1.51083,1.51586 -3.0219,3.03149 -4.5332,4.54687 -2.77122,2.77934 -5.5411,5.55998 -8.30933,8.34229 -2.81892,2.83304 -5.64245,5.66138 -8.46997,8.48584 5.73884,2.13974 11.63387,3.25616 17.625,4.4375 l 3.33105,0.65869 c 7.07959,1.37767 14.16802,2.66442 21.29395,3.77881 l 2.46729,0.40015 c 5.7063,0.88081 5.7063,0.88081 11.28271,-0.27515 2.52208,-1.99975 2.52208,-1.99975 4.875,-4.5625 l 2.65234,-2.76172 c 2.57373,-2.78515 5.09614,-5.60012 7.5625,-8.48047 2.4185,-2.77953 4.91305,-5.48668 7.41016,-8.19531 6.32259,-6.86963 12.43677,-13.90159 18.5,-21 -1.60889,-3.83242 -4.06407,-6.46908 -6.875,-9.5 l -1.45117,-1.56616 C 460.26592,373.14027 454.64223,367.56387 449,362 l -1.78125,-1.83984 c -2.05338,-1.95467 -2.06559,-1.30586 -4.22485,0.74829 z M 217,417 c 3.06203,5.28897 7.10638,9.20663 11.46094,13.46484 2.83802,2.83366 5.47091,5.78911 8.0664,8.84375 L 238,441 l 1.30951,1.55328 c 2.11918,1.81359 3.4543,1.9773 6.21104,2.28566 l 2.79517,0.33172 3.05415,0.3208 3.22191,0.36928 c 3.46804,0.3934 6.93783,0.76727 10.40822,1.13926 2.29056,0.25314 4.58105,0.50684 6.87149,0.76108 7.40117,0.81428 14.80558,1.59669 22.21054,2.37564 1.34576,0.14202 2.69152,0.28412 4.03727,0.42628 7.02158,0.74166 14.04342,1.48075 21.06551,2.21752 6.49803,0.68185 12.99538,1.36982 19.49248,2.06046 5.63415,0.59861 11.26876,1.19278 16.90374,1.7836 3.34203,0.35049 6.68379,0.70328 10.02521,1.05957 3.7138,0.39546 7.42829,0.78365 11.14303,1.1701 l 3.27951,0.35408 C 394.22912,461.06537 394.22912,461.06537 407,456 v -2 l -3.7093,-0.73427 c -13.15342,-2.60387 -26.30663,-5.20879 -39.45974,-7.81425 -5.08168,-1.00661 -10.16341,-2.01298 -15.24518,-3.01917 -25.51045,-5.05133 -51.02016,-10.10577 -76.51547,-15.23309 -1.78457,-0.35861 -3.56916,-0.7172 -5.35374,-1.07576 -7.34525,-1.47624 -14.6901,-2.95435 -22.03311,-4.44166 -2.92077,-0.59087 -5.84213,-1.17875 -8.76365,-1.76585 -1.95603,-0.39418 -3.91125,-0.79242 -5.86643,-1.19081 l -3.47599,-0.69731 -2.99601,-0.60641 C 220.77797,416.89259 220.77797,416.89259 217,417 Z m -32,1 c -1.87009,2.07957 -3.69371,4.17845 -5.5,6.3125 l -1.65259,1.9397 c -3.13803,3.69427 -6.23123,7.4208 -9.28491,11.1853 -4.10165,5.05104 -8.34841,9.96378 -12.62036,14.87036 -4.9208,5.65459 -9.76988,11.36677 -14.59937,17.09937 -2.27698,2.70092 -4.56019,5.39657 -6.84277,8.09277 -2.73981,3.23699 -5.47896,6.47454 -8.21484,9.71484 -4.80783,5.69241 -9.62889,11.37329 -14.47266,17.03516 l -1.51636,1.77417 c -3.57833,4.17344 -7.23513,8.26758 -10.968015,12.30395 C 97.792662,519.90514 97.792662,519.90514 98,522 c 5.74104,2.31338 11.48846,4.60983 17.24243,6.89087 1.95627,0.77826 3.91072,1.56111 5.86328,2.34863 2.80775,1.13153 5.62165,2.24636 8.43726,3.35816 l 2.63945,1.07618 c 3.23119,1.26183 6.00431,2.2922 9.48335,2.43749 3.72443,-1.77321 6.28622,-4.55546 9.13892,-7.49024 l 1.94607,-1.95604 c 2.05094,-2.06667 4.08734,-4.14706 6.12424,-6.22755 1.36241,-1.37391 2.72569,-2.74697 4.08984,-4.11914 1.32239,-1.33583 2.64403,-2.67239 3.96485,-4.00977 l 1.83151,-1.85389 c 3.01762,-3.08395 5.93413,-6.21993 8.75687,-9.48375 3.26783,-3.77216 6.7099,-7.31259 10.26318,-10.8147 l 1.87024,-1.85876 c 2.6011,-2.58499 5.20821,-5.16387 7.81482,-7.74329 C 207.55878,472.58211 207.55878,472.58211 217,462 c 1.99648,-2.33635 3.99805,-4.66833 6,-7 -5.24758,-5.27284 -10.499,-10.54183 -15.75317,-15.80811 -1.78866,-1.7937 -3.57642,-3.58829 -5.36329,-5.38378 -2.56171,-2.57379 -5.12659,-5.14439 -7.69213,-7.71436 l -2.43688,-2.45251 -2.24452,-2.24476 -1.98509,-1.99182 C 186.22296,417.88708 186.22296,417.88708 185,418 Z M 227.34375,482.51953 225.875,484 l -2.82031,2.8125 c -2.16103,2.21005 -4.19524,4.49417 -6.20313,6.84375 -5.29039,6.10418 -11.13495,11.68367 -16.88135,17.35303 -5.27944,5.21504 -10.46248,10.43944 -15.28515,16.0874 -3.86991,4.37117 -8.15292,8.36595 -12.33936,12.43066 l -2.09179,2.0586 -1.89624,1.84521 C 166.78187,544.90627 166.78187,544.90627 167,547 l 1.52187,0.77655 c 5.44756,2.77978 10.8948,5.56019 16.34193,8.34082 3.19876,1.63266 6.39782,3.26473 9.59689,4.89679 10.38785,5.30123 20.76993,10.61299 31.13306,15.9624 1.78895,0.92226 3.57793,1.84446 5.36694,2.7666 2.53415,1.30632 5.06751,2.61405 7.59842,3.92664 2.32344,1.20496 4.64946,2.40477 6.97605,3.60364 l 2.0393,1.06363 c 3.7303,1.91538 7.41193,3.44767 11.42554,4.66293 -1.47426,-10.30351 -3.9057,-20.31384 -6.39453,-30.40625 -0.43394,-1.77331 -0.8675,-3.54671 -1.30071,-5.32019 -1.13671,-4.64892 -2.27875,-9.29651 -3.42189,-13.94385 -1.14735,-4.66895 -2.28917,-9.33926 -3.4317,-14.0094 C 240.34209,512.5364 236.20207,495.7609 232,479 c -2.06602,0 -3.2779,2.14503 -4.65625,3.51953 z M -42,495 c 4.299955,9.07186 9.237325,17.64199 14.371582,26.25684 3.316975,5.58763 6.594275,11.19869 9.878418,16.80566 0.741104,1.26466 1.482233,2.52931 2.223389,3.79395 8.7177469,14.87671 17.4335285,29.75426 26.029297,44.7019 C 13.659106,592.04432 16.826695,597.52378 20,603 l 1.07782,1.86139 c 2.210576,3.8155 4.430085,7.62559 6.661011,11.42923 0.712843,1.2179 1.423114,2.43732 2.130737,3.65826 0.980454,1.69041 1.971201,3.37484 2.962463,5.05893 l 1.710205,2.92627 L 36,630 h 2 c 11.409496,-41.34022 11.409496,-41.34022 22.5625,-82.75 l 0.561005,-2.10541 c 0.504666,-1.89639 1.005182,-3.79389 1.505401,-5.69147 l 0.814698,-3.08886 C 64.07636,534.08034 64.07636,534.08034 64,532 38.095651,522.35314 12.096349,512.99241 -13.981964,503.82616 c -4.374099,-1.53756 -8.744356,-3.08406 -13.105438,-4.65819 l -2.386032,-0.85669 c -1.459426,-0.52458 -2.917546,-1.05282 -4.374054,-1.58545 C -36.713635,495.69881 -38.92839,495 -42,495 Z m 142,50 c 1.27661,3.35282 2.71915,6.44401 4.50391,9.55469 l 1.47924,2.58593 1.57935,2.73438 1.64771,2.86719 c 3.28294,5.69618 6.61631,11.35692 10.0205,16.98144 5.88054,9.73664 11.58287,19.58043 17.32669,29.3981 2.69726,4.60896 5.40243,9.21321 8.11057,13.81577 1.13986,1.93879 2.27956,3.87767 3.41919,5.81659 0.72141,1.22662 1.4434,2.45291 2.16601,3.67883 4.39045,7.44936 8.66135,14.94584 12.74683,22.56708 1.15891,-3.47674 0.79285,-4.61828 -0.13647,-8.09692 l -0.8328,-3.16687 -0.93307,-3.44324 -0.9487,-3.57971 c -0.84631,-3.18696 -1.6999,-6.37179 -2.55711,-9.55582 -0.87887,-3.27065 -1.74901,-6.54361 -2.61993,-9.81638 -1.36662,-5.13184 -2.7384,-10.26227 -4.11352,-15.39184 -1.54006,-5.74954 -3.06207,-11.50351 -4.56934,-17.26172 -0.36974,-1.40783 -0.7396,-2.81563 -1.10962,-4.22339 -0.64215,-2.44486 -1.28211,-4.8903 -1.91943,-7.33642 l -0.84204,-3.17847 -0.69458,-2.64575 c -1.45465,-4.78868 -1.45465,-4.78868 -5.34619,-7.79566 l -3.31079,-1.38281 -3.65821,-1.54688 c -1.28186,-0.52612 -2.56376,-1.05216 -3.8457,-1.57812 -1.24723,-0.52488 -2.49399,-1.05091 -3.74023,-1.57813 C 114.62518,550.39616 107.36776,547.58285 100,545 Z m 65,26 c 1.40538,8.66684 3.47326,17.10161 5.71094,25.58594 0.36872,1.41006 0.7371,2.82022 1.10516,4.23045 0.97953,3.74864 1.96423,7.49591 2.95011,11.24288 0.81459,3.09856 1.62611,6.19793 2.43762,9.2973 C 183.72445,646.25845 190.31887,671.14069 197,696 c 2.79264,-2.75109 5.51214,-5.48442 7.98047,-8.53125 l 1.57226,-1.93555 1.63477,-2.0332 1.73242,-2.14258 c 4.25285,-5.27924 8.38823,-10.63806 12.49805,-16.0293 2.88851,-3.75517 5.8921,-7.41388 8.89453,-11.07812 5.75342,-7.02846 11.29901,-14.19921 16.78516,-21.4375 2.88013,-3.79905 5.83139,-7.53827 8.82812,-11.24609 C 258.18852,620.04166 258.18852,620.04166 258,618 l -1.50459,-0.76791 c -5.27516,-2.69264 -10.54945,-5.38697 -15.82329,-8.08219 -1.95552,-0.99911 -3.91124,-1.99782 -5.86719,-2.99609 -10.86028,-5.54319 -21.70305,-11.11448 -32.47835,-16.8215 C 190.06278,582.84069 177.60596,576.79585 165,571 Z"
       fill="#000000"
       transform="translate(339,144)"
       id="path843"
       sodipodi:nodetypes="cccccccssccccccccccccccccccccccccccccccccccccccccccccccccccccccccccccccccsccsccccccccccccccccccccccccccccssscccccccccccccccccsccccccsccccccscccccccssccsccccccccccccccccccccccccccccccccccccccccccccccccccccccccccccccssccccsscccccccccccccccccccccccccccccscccccccsccccccccccccccccccscccccccccccccsccccccccccccccccscccccccscccccccccccccccccccccssssccscccccccccccccccccccccccccccccccccccccccccccccccccccccccccccccccccccccccccccscscsccccccccccccccccsccccccccccccccccccccccccccccccccccccccccccccscccccccccccccccccccccccccccccscccccccsccccccccccsccccccccccscccccccccccccccccccccccccsccccccccccccssscccscccccccsccccccccccccccccccccccccsccccccccsccccccccccccccccccccccccccccsscscccccssccccccccccccccccccccccccccccccccccsccccccccccccccccccccscccsscccccccccccccccccccccccccccsccccccccccccccccccccccccccccccccccccccccccccccccscccc" />
  </g>
  <g
     inkscape:groupmode="layer"
     id="layer1"
     inkscape:label="Meins"
     style="display:inline">
    <path
       style="fill:none;stroke:#000000;stroke-width:22.6772;stroke-linecap:round;stroke-linejoin:round;stroke-miterlimit:4;stroke-dasharray:none;stroke-opacity:1"
       d="m 303.37187,255.3475 16.60187,133.474 -58.63522,216.38758 105.52002,186.95735 40.45534,-131.94119 109.95054,195.22944 85.27526,-108.58482 -36.88189,-153.64643 160.62065,11.86881 35.3236,-25.71057 55.28865,-60.92844 L 841.48178,459.9502 803.22321,444.50043 647.99832,392.59724 567.9969,305.85686 450.80822,406.811 l 126.8704,-24.81065 50.88324,33.53055 147.12119,59.87563 27.54016,-30.9061 -27.54016,30.9061 65.79873,-15.45633 -65.79873,15.45633 41.20764,43.0467 -41.20764,-43.0467 -90.09515,91.297 76.01414,12.67814 -76.01414,-12.67814 -173.86988,-34.71299 53.93977,61.23289 -84.01681,90.82906 120.8987,62.81737 -120.8987,-62.81737 35.62344,171.40219 -35.62344,-171.40219 -74.3271,-23.82725 -145.97536,-55.01616 131.34018,-137.24545 -72.70496,-79.14213 59.6044,-59.46756 -76.20627,-74.00644 76.20627,74.00644 70.29104,-56.50884 0.93904,133.9659 -58.12952,61.15263 14.63518,192.26161 104.40414,-128.2347 -119.03932,-64.02691 58.12952,-61.15263 60.9098,125.17954 72.49396,-92.01227 -75.04308,-44.32706 68.50972,-13.65086 6.53336,57.97792 c 14.43648,-8.78774 29.39646,-16.59682 44.34988,-24.44737 m -60.56496,-109.67404 -56.11483,-16.38502 -40.69399,-59.7909 -28.26301,-42.08344 -57.55686,20.55432 57.55686,-20.55432 -29.19452,-76.26011 -53.18044,72.54751 89.31907,88.9602 62.01289,16.62674 L 449.86918,272.8451 323.51262,149.27224 303.37187,255.3475"
       id="path856"
       sodipodi:nodetypes="cccccccccccccccccccccccccccccccccccccccccccccccccccccccccccccccccccc" />
  </g>
  <g
     inkscape:groupmode="layer"
     id="layer3"
     inkscape:label="auto"
     style="display:none"
     sodipodi:insensitive="true">
    <circle
       style="opacity:0.279302;fill:#ff0000;stroke:none;stroke-width:3.77953;stroke-linejoin:round;stroke-miterlimit:4;stroke-dasharray:none"
       id="path863"
       cx="333.94873"
       cy="161.64102"
       r="1.3675214" />
    <circle
       r="1.3675214"
       cy="271.04272"
       cx="315.35043"
       id="circle865"
       style="opacity:0.279302;fill:#ff0000;stroke:none;stroke-width:3.77953;stroke-linejoin:round;stroke-miterlimit:4;stroke-dasharray:none" />
    <circle
       style="opacity:0.279302;fill:#ff0000;stroke:none;stroke-width:3.77953;stroke-linejoin:round;stroke-miterlimit:4;stroke-dasharray:none"
       id="circle867"
       cx="391.11111"
       cy="344.06836"
       r="1.3675214" />
    <circle
       r="1.3675214"
       cy="287.40311"
       cx="461.12073"
       id="circle869"
       style="opacity:0.279302;fill:#ff0000;stroke:none;stroke-width:3.77953;stroke-linejoin:round;stroke-miterlimit:4;stroke-dasharray:none" />
    <circle
       style="opacity:0.279302;fill:#ff0000;stroke:none;stroke-width:3.77953;stroke-linejoin:round;stroke-miterlimit:4;stroke-dasharray:none"
       id="circle871"
       cx="330.38455"
       cy="395.89868"
       r="1.3675214" />
    <circle
       r="1.3675214"
       cy="482.73383"
       cx="406.00269"
       id="circle873"
       style="opacity:0.279302;fill:#ff0000;stroke:none;stroke-width:3.77953;stroke-linejoin:round;stroke-miterlimit:4;stroke-dasharray:none" />
    <circle
       style="opacity:0.279302;fill:#ff0000;stroke:none;stroke-width:3.77953;stroke-linejoin:round;stroke-miterlimit:4;stroke-dasharray:none"
       id="circle875"
       cx="463.63492"
       cy="413.30441"
       r="1.3675214" />
    <circle
       r="1.3675214"
       cy="316.79944"
       cx="577.35223"
       id="circle877"
       style="opacity:0.279302;fill:#ff0000;stroke:none;stroke-width:3.77953;stroke-linejoin:round;stroke-miterlimit:4;stroke-dasharray:none" />
    <circle
       style="opacity:0.279302;fill:#ff0000;stroke:none;stroke-width:3.77953;stroke-linejoin:round;stroke-miterlimit:4;stroke-dasharray:none"
       id="circle879"
       cx="589.53625"
       cy="396.47888"
       r="1.3675214" />
    <circle
       r="1.3675214"
       cy="407.30911"
       cx="530.74365"
       id="circle881"
       style="opacity:0.279302;fill:#ff0000;stroke:none;stroke-width:3.77953;stroke-linejoin:round;stroke-miterlimit:4;stroke-dasharray:none" />
    <circle
       style="opacity:0.279302;fill:#ff0000;stroke:none;stroke-width:3.77953;stroke-linejoin:round;stroke-miterlimit:4;stroke-dasharray:none"
       id="circle883"
       cx="598.04572"
       cy="450.82336"
       r="1.3675214" />
    <circle
       r="1.3675214"
       cy="425.4884"
       cx="636.33826"
       id="circle885"
       style="opacity:0.279302;fill:#ff0000;stroke:none;stroke-width:3.77953;stroke-linejoin:round;stroke-miterlimit:4;stroke-dasharray:none" />
    <circle
       style="opacity:0.279302;fill:#ff0000;stroke:none;stroke-width:3.77953;stroke-linejoin:round;stroke-miterlimit:4;stroke-dasharray:none"
       id="circle887"
       cx="782.93298"
       cy="486.40839"
       r="1.3675214" />
    <circle
       r="1.3675214"
       cy="471.51685"
       cx="855.06995"
       id="circle889"
       style="opacity:0.279302;fill:#ff0000;stroke:none;stroke-width:3.77953;stroke-linejoin:round;stroke-miterlimit:4;stroke-dasharray:none" />
    <circle
       style="opacity:0.279302;fill:#ff0000;stroke:none;stroke-width:3.77953;stroke-linejoin:round;stroke-miterlimit:4;stroke-dasharray:none"
       id="circle891"
       cx="823.35291"
       cy="459.71964"
       r="1.3675214" />
    <circle
       r="1.3675214"
       cy="527.21509"
       cx="827.80103"
       id="circle893"
       style="opacity:0.279302;fill:#ff0000;stroke:none;stroke-width:3.77953;stroke-linejoin:round;stroke-miterlimit:4;stroke-dasharray:none" />
    <circle
       style="opacity:0.279302;fill:#ff0000;stroke:none;stroke-width:3.77953;stroke-linejoin:round;stroke-miterlimit:4;stroke-dasharray:none"
       id="circle895"
       cx="769.58862"
       cy="592.96997"
       r="1.3675214" />
    <circle
       r="1.3675214"
       cy="616.56439"
       cx="736.13098"
       id="circle897"
       style="opacity:0.279302;fill:#ff0000;stroke:none;stroke-width:3.77953;stroke-linejoin:round;stroke-miterlimit:4;stroke-dasharray:none" />
    <circle
       style="opacity:0.279302;fill:#ff0000;stroke:none;stroke-width:3.77953;stroke-linejoin:round;stroke-miterlimit:4;stroke-dasharray:none"
       id="circle899"
       cx="697.06482"
       cy="576.33789"
       r="1.3675214" />
    <circle
       r="1.3675214"
       cy="541.52649"
       cx="526.87567"
       id="circle901"
       style="opacity:0.279302;fill:#ff0000;stroke:none;stroke-width:3.77953;stroke-linejoin:round;stroke-miterlimit:4;stroke-dasharray:none" />
    <circle
       style="opacity:0.279302;fill:#ff0000;stroke:none;stroke-width:3.77953;stroke-linejoin:round;stroke-miterlimit:4;stroke-dasharray:none"
       id="circle903"
       cx="576.96545"
       cy="602.25305"
       r="1.3675214" />
    <circle
       r="1.3675214"
       cy="696.82404"
       cx="491.67749"
       id="circle905"
       style="opacity:0.279302;fill:#ff0000;stroke:none;stroke-width:3.77953;stroke-linejoin:round;stroke-miterlimit:4;stroke-dasharray:none" />
    <circle
       style="opacity:0.279302;fill:#ff0000;stroke:none;stroke-width:3.77953;stroke-linejoin:round;stroke-miterlimit:4;stroke-dasharray:none"
       id="circle907"
       cx="611.39008"
       cy="757.16382"
       r="1.3675214" />
    <circle
       r="1.3675214"
       cy="856.18292"
       cx="526.29553"
       id="circle909"
       style="opacity:0.279302;fill:#ff0000;stroke:none;stroke-width:3.77953;stroke-linejoin:round;stroke-miterlimit:4;stroke-dasharray:none" />
    <circle
       style="opacity:0.279302;fill:#ff0000;stroke:none;stroke-width:3.77953;stroke-linejoin:round;stroke-miterlimit:4;stroke-dasharray:none"
       id="circle911"
       cx="379.12064"
       cy="794.87616"
       r="1.3675214" />
    <circle
       r="1.3675214"
       cy="670.71545"
       cx="418.18677"
       id="circle913"
       style="opacity:0.279302;fill:#ff0000;stroke:none;stroke-width:3.77953;stroke-linejoin:round;stroke-miterlimit:4;stroke-dasharray:none" />
    <circle
       style="opacity:0.279302;fill:#ff0000;stroke:none;stroke-width:3.77953;stroke-linejoin:round;stroke-miterlimit:4;stroke-dasharray:none"
       id="circle915"
       cx="273.33261"
       cy="616.75775"
       r="1.3675214" />
  </g>
</svg>
